<?xml version="1.0" encoding="UTF-8" standalone="no" ?>
<!DOCTYPE svg PUBLIC "-//W3C//DTD SVG 1.1//EN" "http://www.w3.org/Graphics/SVG/1.1/DTD/svg11.dtd">
<svg xmlns="http://www.w3.org/2000/svg" xmlns:xlink="http://www.w3.org/1999/xlink" version="1.1" width="1280" height="1024" viewBox="0 0 1280 1024" xml:space="preserve">
<desc>Created with Fabric.js 5.3.0</desc>
<defs>
</defs>
<g transform="matrix(1 0 0 1 640 512)" id="background-logo"  >
<rect style="stroke: none; stroke-width: 0; stroke-dasharray: none; stroke-linecap: butt; stroke-dashoffset: 0; stroke-linejoin: miter; stroke-miterlimit: 4; fill: rgb(18,25,27); fill-rule: nonzero; opacity: 1;"  paint-order="stroke"  x="-640" y="-512" rx="0" ry="0" width="1280" height="1024" />
</g>
<g transform="matrix(1.9211538461538462 0 0 1.9211538461538462 639.4856110576923 627.2320856726508)" id="text-logo"  >
<g style=""  paint-order="stroke"   >
		<g transform="matrix(1 0 0 1 0 0)" id="text-logo-path-0"  >
<path style="stroke: none; stroke-width: 0.670212765957446; stroke-dasharray: none; stroke-linecap: butt; stroke-dashoffset: 0; stroke-linejoin: miter; stroke-miterlimit: 4; fill: rgb(62,201,168); fill-rule: nonzero; opacity: 1;"  paint-order="stroke"  transform=" translate(-105.74499999999999, 22.080000000000002)" d="M 17.32 0.95 C 25.96 0.95 34.34 -2.83 34.34 -12.73 C 34.34 -21.92 28.1 -25.07 19.28 -28.66 C 15.56 -30.18 13.99 -30.87 13.99 -32.76 C 13.99 -34.02 14.99 -35.15 17.89 -35.15 C 20.22 -35.15 21.92 -33.7 22.93 -30.87 L 33.45 -36.1 C 31.12 -42.9 24.95 -45.17 18.4 -45.17 C 10.02 -45.17 2.14 -41.58 2.14 -31.82 C 2.14 -22.11 9.64 -19.4 16.19 -16.19 C 20.98 -13.86 22.93 -13.29 22.93 -11.59 C 22.93 -9.58 21.11 -9.07 18.27 -9.07 C 14.36 -9.07 12.6 -10.77 10.71 -13.67 L 1.32 -7.75 C 4.28 -2.39 10.27 0.95 17.32 0.95 Z M 39.94 0 L 52.42 0 L 52.42 -16.88 L 65.39 -16.88 L 65.39 0 L 77.87 0 L 77.87 -44.1 L 65.39 -44.1 L 65.39 -27.34 L 52.42 -27.34 L 52.42 -44.1 L 39.94 -44.1 Z M 107.23 1.01 C 121.09 1.01 130.85 -8.51 130.85 -22.05 C 130.85 -35.59 121.09 -45.11 107.23 -45.11 C 93.3 -45.11 83.47 -35.59 83.47 -22.05 C 83.47 -8.51 93.3 1.01 107.23 1.01 Z M 107.23 -9.58 C 100.67 -9.58 96.08 -14.74 96.08 -22.05 C 96.08 -29.36 100.67 -34.52 107.23 -34.52 C 113.72 -34.52 118.25 -29.36 118.25 -22.05 C 118.25 -14.74 113.72 -9.58 107.23 -9.58 Z M 136.46 0 L 148.93 0 L 148.93 -15.18 L 151.7 -15.18 L 162.6 0 L 176.09 0 L 163.93 -17.01 C 169.16 -19.34 172.37 -23.75 172.37 -29.61 C 172.37 -38.56 165.56 -44.1 155.04 -44.1 L 136.46 -44.1 Z M 148.93 -23.69 L 148.93 -34.27 L 154.92 -34.27 C 157.94 -34.27 160.08 -32.38 160.08 -28.98 C 160.08 -25.58 157.94 -23.69 154.92 -23.69 Z M 178.79 -33.64 L 188.24 -33.64 L 188.24 0 L 200.72 0 L 200.72 -33.64 L 210.17 -33.64 L 210.17 -44.1 L 178.79 -44.1 Z" stroke-linecap="round" />
</g>
</g>
</g>
<g transform="matrix(1.9211538461538462 0 0 1.9211538461538462 640.3621375000001 720.1403564106151)" id="tagline-c349782e-9ba2-4d7a-a88f-99e086d1d059-logo"  >
<g style=""  paint-order="stroke"   >
		<g transform="matrix(1 0 0 1 -5.684342e-14 0)" id="tagline-c349782e-9ba2-4d7a-a88f-99e086d1d059-logo-path-0"  >
<path style="stroke: none; stroke-width: 0.47593618364653045; stroke-dasharray: none; stroke-linecap: butt; stroke-dashoffset: 0; stroke-linejoin: miter; stroke-miterlimit: 4; fill: rgb(59,179,183); fill-rule: nonzero; opacity: 1;"  paint-order="stroke"  transform=" translate(-131.92000000000002, 10.15)" d="M 19.43 -2.18 L 19.78 0 L 22.68 0 L 22.68 -10.73 L 12.01 -10.73 L 12.01 -7.54 L 18.13 -7.54 C 17.26 -5.05 15.08 -3.48 11.89 -3.48 C 7.74 -3.48 5.22 -6.21 5.22 -10.15 C 5.22 -14.07 7.71 -16.82 11.89 -16.82 C 15.11 -16.82 17.34 -15.2 18.18 -12.62 L 22.68 -12.62 C 21.66 -17.43 17.72 -20.59 11.89 -20.59 C 5.16 -20.59 0.87 -16.3 0.87 -10.15 C 0.87 -4.03 5.16 0.29 11.89 0.29 C 14.94 0.29 17.55 -0.61 19.43 -2.18 Z M 51.39 -20.3 L 34.63 -20.3 L 34.63 0 L 51.39 0 L 51.39 -3.77 L 38.98 -3.77 L 38.98 -8.27 L 49.94 -8.27 L 49.94 -12.04 L 38.98 -12.04 L 38.98 -16.53 L 51.39 -16.53 Z M 68.59 -20.3 L 63.08 -20.3 L 63.08 0 L 67.43 0 L 67.43 -14.91 L 77.87 0 L 83.38 0 L 83.38 -20.3 L 79.03 -20.3 L 79.03 -5.39 Z M 112.46 -20.3 L 95.7 -20.3 L 95.7 0 L 112.46 0 L 112.46 -3.77 L 100.05 -3.77 L 100.05 -8.27 L 111.01 -8.27 L 111.01 -12.04 L 100.05 -12.04 L 100.05 -16.53 L 112.46 -16.53 Z M 135.69 -20.3 L 124.15 -20.3 L 124.15 0 L 128.5 0 L 128.5 -7.4 L 133.69 -7.4 L 138.65 0 L 143.29 0 L 138.13 -7.71 C 140.97 -8.5 142.68 -10.76 142.68 -13.86 C 142.68 -17.78 139.98 -20.3 135.69 -20.3 Z M 135.52 -11.17 L 128.5 -11.17 L 128.5 -16.53 L 135.52 -16.53 C 137.29 -16.53 138.33 -15.52 138.33 -13.86 C 138.33 -12.18 137.29 -11.17 135.52 -11.17 Z M 160.92 -20.3 L 152.8 0 L 157.44 0 L 158.6 -2.9 L 169.04 -2.9 L 170.2 0 L 174.84 0 L 166.72 -20.3 Z M 167.53 -6.67 L 160.11 -6.67 L 163.82 -15.95 Z M 200.91 -16.53 L 200.91 -20.3 L 180.96 -20.3 L 180.96 -16.53 L 188.76 -16.53 L 188.76 0 L 193.11 0 L 193.11 -16.53 Z M 221.36 0.29 C 228.11 0.29 232.38 -3.97 232.38 -10.15 C 232.38 -16.3 228.09 -20.59 221.36 -20.59 C 214.63 -20.59 210.34 -16.33 210.34 -10.15 C 210.34 -4 214.6 0.29 221.36 0.29 Z M 214.69 -10.15 C 214.69 -14.09 217.18 -16.82 221.36 -16.82 C 225.53 -16.82 228.03 -14.09 228.03 -10.15 C 228.03 -6.21 225.53 -3.48 221.36 -3.48 C 217.21 -3.48 214.69 -6.21 214.69 -10.15 Z M 255.37 -20.3 L 243.83 -20.3 L 243.83 0 L 248.18 0 L 248.18 -7.4 L 253.37 -7.4 L 258.33 0 L 262.97 0 L 257.81 -7.71 C 260.65 -8.5 262.36 -10.76 262.36 -13.86 C 262.36 -17.78 259.67 -20.3 255.37 -20.3 Z M 255.2 -11.17 L 248.18 -11.17 L 248.18 -16.53 L 255.2 -16.53 C 256.97 -16.53 258.01 -15.52 258.01 -13.86 C 258.01 -12.18 256.97 -11.17 255.2 -11.17 Z" stroke-linecap="round" />
</g>
</g>
</g>
<g transform="matrix(1.9211538461538462 0 0 1.9211538461538462 637.8387019230769 387.5879313129785)" id="tagline-83fdfb2a-8044-4ad8-b129-1c6be14b1c43-logo"  >
<g style=""  paint-order="stroke"   >
		<g transform="matrix(1 0 0 1 0 0)" id="tagline-83fdfb2a-8044-4ad8-b129-1c6be14b1c43-logo-path-0"  >
<linearGradient id="SVGID_42607" gradientUnits="userSpaceOnUse" gradientTransform="matrix(1 0 0 1 6.300000000000011 -127.8)"  x1="-6.255010986328159" y1="-30.4452" x2="-6.255010986328159" y2="172.5548">
<stop offset="0%" style="stop-color:rgb(66,230,149);stop-opacity: 1"/>
<stop offset="100%" style="stop-color:rgb(59,178,184);stop-opacity: 1"/>
</linearGradient>
<path style="stroke: rgb(255,255,255); stroke-width: 0; stroke-dasharray: none; stroke-linecap: butt; stroke-dashoffset: 0; stroke-linejoin: miter; stroke-miterlimit: 4; fill: url(#SVGID_42607); fill-rule: nonzero; opacity: 1;"  paint-order="stroke"  transform=" translate(-159.75, 63)" d="M 46.08 -44.46 L 6.3 -44.46 C 8.64 -14.22 28.98 1.8 73.08 1.8 C 117.72 1.8 139.86 -12.96 139.86 -37.62 C 139.86 -66.78 103.5 -73.44 77.04 -77.94 C 59.58 -80.82 49.14 -81.54 49.14 -88.38 C 49.14 -95.76 55.44 -98.82 70.92 -98.82 C 89.1 -98.82 95.76 -93.6 96.84 -81.9 L 136.08 -81.9 C 135.36 -114.84 108.54 -127.8 71.46 -127.8 C 29.7 -127.8 9.54 -113.22 9.54 -89.64 C 9.54 -57.96 46.8 -52.38 73.44 -48.42 C 90.36 -46.08 100.26 -44.64 100.26 -38.16 C 100.26 -31.14 90.9 -27.18 73.08 -27.18 C 55.98 -27.18 45.9 -32.22 46.08 -44.46 Z M 170.64 -63 C 170.64 -25.02 198.18 1.8 241.2 1.8 C 261.72 1.8 278.82 -4.32 291.06 -14.76 L 293.4 0 L 313.2 0 L 313.2 -68.4 L 241.56 -68.4 L 241.56 -46.8 L 268.74 -46.8 C 264.06 -36.72 254.52 -30.6 241.2 -30.6 C 221.76 -30.6 210.24 -43.92 210.24 -63 C 210.24 -81.9 221.58 -95.4 241.2 -95.4 C 255.42 -95.4 265.68 -88.2 269.82 -76.68 L 310.5 -76.68 C 304.74 -107.46 279 -127.8 241.2 -127.8 C 198.18 -127.8 170.64 -101.34 170.64 -63 Z" stroke-linecap="round" />
</g>
</g>
</g>
</svg>